<svg id="comment" xmlns="http://www.w3.org/2000/svg" viewBox="0 0 15 12.86"><defs><style>.cls-1{fill:#616f7d;}</style></defs><title>icono-comments</title><g id="icono"><path class="cls-1" d="M14.5,2.74a6.79,6.79,0,0,0-2.73-2A9.73,9.73,0,0,0,8,.07,10,10,0,0,0,5.09.49,8.15,8.15,0,0,0,2.69,1.64a5.71,5.71,0,0,0-1.6,1.71A4,4,0,0,0,.5,5.43a4.06,4.06,0,0,0,.76,2.35A6.15,6.15,0,0,0,3.33,9.62a5.32,5.32,0,0,1-.22.64q-.13.3-.23.49a3.4,3.4,0,0,1-.27.43q-.17.23-.26.33l-.29.32-.26.29-.07.08-.06.07-.05.08s0,.07,0,.08a.22.22,0,0,1,0,.08.11.11,0,0,0,0,.1h0a.42.42,0,0,0,.15.24.33.33,0,0,0,.26.08,6.28,6.28,0,0,0,1-.18,9.15,9.15,0,0,0,3.85-2A11.45,11.45,0,0,0,8,10.78a9.73,9.73,0,0,0,3.77-.72,6.78,6.78,0,0,0,2.73-2,4.11,4.11,0,0,0,0-5.38Z" transform="translate(-0.5 -0.07)"/></g></svg>